<svg width="31" height="30" viewBox="0 0 31 30" fill="none" xmlns="http://www.w3.org/2000/svg">
<rect width="31" height="30" fill="#656565"/>
<g id="iPhone 13 mini - 1" clip-path="url(#clip0_0_1)">
<rect width="375" height="3323" transform="translate(-252 -2410)" fill="white"/>
<g id="Frame 92">
<g id="Frame 70">
<g id="Frame 69">
<g id="vuesax/bold/arrow-circle-right">
<g id="vuesax/bold/arrow-circle-right_2">
<g id="arrow-circle-right">
<path id="Vector" d="M15.6666 27.5C22.5541 27.5 28.1666 21.8875 28.1666 15C28.1666 8.1125 22.5541 2.5 15.6666 2.5C8.77913 2.5 3.16663 8.1125 3.16663 15C3.16663 21.8875 8.77913 27.5 15.6666 27.5ZM12.1791 14.3375L16.5916 9.925C16.7791 9.7375 17.0166 9.65 17.2541 9.65C17.4916 9.65 17.7291 9.7375 17.9166 9.925C18.2791 10.2875 18.2791 10.8875 17.9166 11.25L14.1666 15L17.9166 18.75C18.2791 19.1125 18.2791 19.7125 17.9166 20.075C17.5541 20.4375 16.9541 20.4375 16.5916 20.075L12.1791 15.6625C11.8041 15.3 11.8041 14.7 12.1791 14.3375Z" fill="#D1D1D1"/>
</g>
</g>
</g>
</g>
</g>
</g>
</g>
<defs>
<clipPath id="clip0_0_1">
<rect width="375" height="3323" fill="white" transform="translate(-252 -2410)"/>
</clipPath>
</defs>
</svg>
