<svg width="31" height="30" viewBox="0 0 31 30" fill="none" xmlns="http://www.w3.org/2000/svg">
<path d="M15.6666 2.5C8.77913 2.5 3.16663 8.1125 3.16663 15C3.16663 21.8875 8.77913 27.5 15.6666 27.5C22.5541 27.5 28.1666 21.8875 28.1666 15C28.1666 8.1125 22.5541 2.5 15.6666 2.5ZM19.1541 15.6625L14.7416 20.075C14.5541 20.2625 14.3166 20.35 14.0791 20.35C13.8416 20.35 13.6041 20.2625 13.4166 20.075C13.0541 19.7125 13.0541 19.1125 13.4166 18.75L17.1666 15L13.4166 11.25C13.0541 10.8875 13.0541 10.2875 13.4166 9.925C13.7791 9.5625 14.3791 9.5625 14.7416 9.925L19.1541 14.3375C19.5291 14.7 19.5291 15.3 19.1541 15.6625Z" fill="#F53838"/>
</svg>
